<svg xmlns="http://www.w3.org/2000/svg" xmlns:svg="http://www.w3.org/2000/svg" id="svg535" width="514.286" height="451.429" version="1.1" viewBox="0 0 136.071 119.44"><metadata id="metadata532"/><g id="g415" transform="matrix(0.35277777,0,0,-0.35277777,-14.748629,215.88579)"><path id="path106" d="m 231.72,581.602 -1.86,-0.12 -1.74,-0.24 -1.74,-0.48 -1.68,-0.6 -1.56,-0.78 -1.5,-0.9 -1.38,-1.02 -1.26,-1.14 -1.2,-1.32 -1.02,-1.38 -0.9,-1.44 -0.72,-1.62 -0.66,-1.62 -0.42,-1.74 -0.24,-1.8 -0.12,-1.8 v -27 l 0.12,-1.86 0.24,-1.8 0.42,-1.74 0.66,-1.62 0.72,-1.56 0.9,-1.5 1.02,-1.38 1.2,-1.32 1.26,-1.14 1.38,-1.02 1.5,-0.9 1.56,-0.78 1.68,-0.6 1.74,-0.42 1.74,-0.3 1.86,-0.06 h 49.5 l 1.86,0.06 1.74,0.3 1.74,0.42 1.68,0.6 1.56,0.78 1.5,0.9 1.38,1.02 1.26,1.14 1.2,1.32 1.02,1.38 0.9,1.5 0.72,1.56 0.66,1.62 0.42,1.74 0.24,1.8 0.12,1.86 v 27 l -0.12,1.8 -0.24,1.8 -0.42,1.74 -0.66,1.62 -0.72,1.62 -0.9,1.44 -1.02,1.38 -1.2,1.32 -1.26,1.14 -1.38,1.02 -1.5,0.9 -1.56,0.78 -1.68,0.6 -1.74,0.48 -1.74,0.24 -1.86,0.12 h -49.5" style="fill:#fff;fill-opacity:1;fill-rule:evenodd;stroke:none"/><path id="path108" d="m 231.78,581.362 -1.86,-0.12 -1.74,-0.24 -1.74,-0.48 h 0.06 l -1.68,-0.6 -1.56,-0.78 -1.5,-0.9 0.06,0.06 -1.38,-1.02 -1.26,-1.14 -1.2,-1.32 -1.02,-1.38 0.06,0.06 -0.9,-1.44 -0.72,-1.62 -0.66,-1.62 v 0.06 l -0.42,-1.74 -0.24,-1.8 -0.12,-1.8 v 0.06 -27 l 0.12,-1.86 0.24,-1.8 v 0.06 l 0.42,-1.74 0.66,-1.62 0.72,-1.56 v 0.06 l 0.9,-1.5 h -0.06 l 1.02,-1.38 1.2,-1.32 v 0.06 l 1.26,-1.14 1.38,-1.02 h -0.06 l 1.5,-0.9 1.56,-0.78 v 0.06 l 1.68,-0.6 h -0.06 l 1.74,-0.42 1.74,-0.3 h -0.06 l 1.86,-0.06 h 49.5 l 1.86,0.06 1.74,0.3 h -0.06 l 1.74,0.42 1.68,0.6 -0.06,-0.06 1.56,0.78 0.24,-0.42 -1.56,-0.78 -1.68,-0.6 h -0.06 l -1.74,-0.42 -1.74,-0.3 h -0.06 l -1.86,-0.06 h -49.5 l -1.86,0.06 -1.74,0.3 h -0.06 l -1.74,0.42 -1.68,0.6 h -0.06 l -1.56,0.78 -1.5,0.9 v 0.06 l -1.38,1.02 -1.26,1.14 h -0.06 l -1.2,1.32 -1.02,1.38 v 0.06 l -0.9,1.5 -0.72,1.56 -0.66,1.62 -0.06,0.06 -0.42,1.74 -0.24,1.8 -0.12,1.86 v 27.06 l 0.12,1.8 0.24,1.8 v 0.06 l 0.42,1.74 h 0.06 l 0.66,1.62 0.72,1.62 v 0.06 l 0.9,1.44 1.02,1.38 1.2,1.32 0.06,0.06 1.26,1.14 1.38,1.02 1.5,0.9 1.56,0.78 0.06,0.06 1.68,0.6 1.74,0.48 h 0.06 l 1.74,0.24 1.86,0.12" style="fill:#000;fill-opacity:1;fill-rule:nonzero;stroke:none"/><path id="path110" d="m 289.68,520.942 1.5,0.9 1.38,1.02 1.26,1.14 -0.06,-0.06 1.2,1.32 1.02,1.38 0.9,1.5 v -0.06 l 0.72,1.56 0.66,1.62 h -0.06 l 0.42,1.74 v -0.06 l 0.24,1.8 0.12,1.86 v 27 -0.06 l -0.12,1.8 -0.24,1.8 -0.42,1.74 0.06,-0.06 -0.66,1.62 -0.72,1.62 -0.9,1.44 v -0.06 l -1.02,1.38 -1.2,1.32 h 0.06 l -1.26,1.14 -1.38,1.02 v -0.06 l -1.5,0.9 -1.56,0.78 h 0.06 l -1.68,0.6 -1.74,0.48 h 0.06 l -1.74,0.24 -1.86,0.12 h -49.5 0.06 l -0.06,0.48 h 49.56 l 1.86,-0.12 1.74,-0.24 1.74,-0.48 h 0.06 l 1.68,-0.6 v -0.06 l 1.56,-0.78 1.5,-0.9 h 0.06 l 1.38,-1.02 1.26,-1.14 v -0.06 l 1.2,-1.32 1.02,-1.38 h 0.06 l 0.9,-1.44 v -0.06 l 0.72,-1.62 0.66,-1.62 0.42,-1.74 v -0.06 l 0.24,-1.8 0.12,-1.8 v -27.06 l -0.12,-1.86 -0.24,-1.8 -0.42,-1.74 v -0.06 l -0.66,-1.62 -0.72,-1.56 -0.9,-1.5 -0.06,-0.06 -1.02,-1.38 -1.2,-1.32 -1.26,-1.14 -1.38,-1.02 -0.06,-0.06 -1.5,-0.9" style="fill:#000;fill-opacity:1;fill-rule:nonzero;stroke:none"/><text id="text120" transform="matrix(1,0,0,-1,236.04,564.6217)" style="font-variant:normal;font-weight:400;font-size:10.98px;font-family:'Times New Roman';-inkscape-font-specification:TimesNewRoman;writing-mode:lr-tb;fill:#000;fill-opacity:1;fill-rule:nonzero;stroke:none"><tspan id="tspan112" x="0 4.884 10.383 15.881 18.943 23.827 26.888 32.348 37.269" y="0">container</tspan><tspan id="tspan114" x="6.72 12.211 17.702 20.755 23.809 28.685" y="12.18">policy</tspan><tspan id="tspan116" x="-7.021 -2.099 3.361 7.026 12.525 16.19 21.074 25.958 34.509 39.393 44.892" y="24.36">enforcement</tspan><tspan id="tspan118" x="9.119 14.589 20.109 23.141 28.612" y="36.48">point</tspan></text><path id="path122" d="m 231.72,465.622 -1.86,-0.12 -1.74,-0.24 -1.74,-0.48 -1.68,-0.6 -1.56,-0.72 -1.5,-0.9 -1.38,-1.08 -1.26,-1.14 -1.2,-1.26 -1.02,-1.38 -0.9,-1.5 -0.72,-1.56 -0.66,-1.68 -0.42,-1.74 -0.24,-1.8 -0.12,-1.8 v -27 l 0.12,-1.86 0.24,-1.8 0.42,-1.68 0.66,-1.68 0.72,-1.56 0.9,-1.5 1.02,-1.38 1.2,-1.26 1.26,-1.2 1.38,-1.02 1.5,-0.9 1.56,-0.78 1.68,-0.6 1.74,-0.42 1.74,-0.3 1.86,-0.06 h 49.5 l 1.86,0.06 1.74,0.3 1.74,0.42 1.68,0.6 1.56,0.78 1.5,0.9 1.38,1.02 1.26,1.2 1.2,1.26 1.02,1.38 0.9,1.5 0.72,1.56 0.66,1.68 0.42,1.68 0.24,1.8 0.12,1.86 v 27 l -0.12,1.8 -0.24,1.8 -0.42,1.74 -0.66,1.68 -0.72,1.56 -0.9,1.5 -1.02,1.38 -1.2,1.26 -1.26,1.14 -1.38,1.08 -1.5,0.9 -1.56,0.72 -1.68,0.6 -1.74,0.48 -1.74,0.24 -1.86,0.12 h -49.5" style="fill:#fff;fill-opacity:1;fill-rule:evenodd;stroke:none"/><path id="path124" d="m 231.78,465.382 -1.86,-0.12 -1.74,-0.24 -1.74,-0.48 h 0.06 l -1.68,-0.6 -1.56,-0.72 -1.5,-0.9 0.06,0.06 -1.38,-1.08 -1.26,-1.14 -1.2,-1.26 -1.02,-1.38 0.06,0.06 -0.9,-1.5 -0.72,-1.56 -0.66,-1.68 v 0.06 l -0.42,-1.74 -0.24,-1.8 -0.12,-1.8 v 0.06 -27 l 0.12,-1.86 0.24,-1.8 v 0.06 l 0.42,-1.68 0.66,-1.68 0.72,-1.56 v 0.06 l 0.9,-1.5 h -0.06 l 1.02,-1.38 v 0.06 l 1.2,-1.26 1.26,-1.2 1.38,-1.02 h -0.06 l 1.5,-0.9 1.56,-0.78 v 0.06 l 1.68,-0.6 h -0.06 l 1.74,-0.42 1.74,-0.3 h -0.06 l 1.86,-0.06 h 49.5 l 1.86,0.06 1.74,0.3 h -0.06 l 1.74,0.42 1.68,0.6 -0.06,-0.06 1.56,0.78 0.24,-0.42 -1.56,-0.78 -1.68,-0.6 h -0.06 l -1.74,-0.42 -1.74,-0.3 h -0.06 l -1.86,-0.06 h -49.5 l -1.86,0.06 -1.74,0.3 h -0.06 l -1.74,0.42 -1.68,0.6 h -0.06 l -1.56,0.78 -1.5,0.9 v 0.06 l -1.38,1.02 h -0.06 l -1.26,1.2 -1.2,1.26 -1.02,1.38 v 0.06 l -0.9,1.5 -0.72,1.56 -0.66,1.68 -0.06,0.06 -0.42,1.68 -0.24,1.8 -0.12,1.86 v 27.06 l 0.12,1.8 0.24,1.8 v 0.06 l 0.42,1.74 h 0.06 l 0.66,1.68 0.72,1.56 v 0.06 l 0.9,1.5 1.02,1.38 v 0.06 l 1.2,1.26 h 0.06 l 1.26,1.14 1.38,1.08 1.5,0.9 h 0.06 l 1.56,0.72 v 0.06 l 1.68,0.6 1.74,0.48 h 0.06 l 1.74,0.24 1.86,0.12" style="fill:#000;fill-opacity:1;fill-rule:nonzero;stroke:none"/><path id="path126" d="m 289.68,404.962 1.5,0.9 1.38,1.02 h -0.06 l 1.26,1.2 1.2,1.26 v -0.06 l 1.02,1.38 0.9,1.5 v -0.06 l 0.72,1.56 0.66,1.68 h -0.06 l 0.42,1.68 v -0.06 l 0.24,1.8 0.12,1.86 v 27 -0.06 l -0.12,1.8 -0.24,1.8 -0.42,1.74 0.06,-0.06 -0.66,1.68 -0.72,1.56 -0.9,1.5 v -0.06 l -1.02,1.38 -1.2,1.26 h 0.06 l -1.26,1.14 -1.38,1.08 v -0.06 l -1.5,0.9 h 0.06 l -1.56,0.72 -1.68,0.6 -1.74,0.48 h 0.06 l -1.74,0.24 -1.86,0.12 h -49.5 0.06 l -0.06,0.48 h 49.56 l 1.86,-0.12 1.74,-0.24 1.74,-0.48 h 0.06 l 1.68,-0.6 v -0.06 l 1.56,-0.72 1.5,-0.9 h 0.06 l 1.38,-1.08 1.26,-1.14 1.2,-1.26 v -0.06 l 1.02,-1.38 h 0.06 l 0.9,-1.5 v -0.06 l 0.72,-1.56 0.66,-1.68 0.42,-1.74 v -0.06 l 0.24,-1.8 0.12,-1.8 v -27.06 l -0.12,-1.86 -0.24,-1.8 -0.42,-1.68 v -0.06 l -0.66,-1.68 -0.72,-1.56 -0.9,-1.5 -0.06,-0.06 -1.02,-1.38 -1.2,-1.26 -1.26,-1.2 -1.38,-1.02 -0.06,-0.06 -1.5,-0.9" style="fill:#000;fill-opacity:1;fill-rule:nonzero;stroke:none"/><text id="text144" transform="matrix(1,0,0,-1,222.42,448.6417)" style="font-variant:normal;font-weight:400;font-size:10.98px;font-family:'Times New Roman';-inkscape-font-specification:TimesNewRoman;writing-mode:lr-tb;fill:#000;fill-opacity:1;fill-rule:nonzero;stroke:none"><tspan id="tspan128" x="0 6.107 11.599 14.654 17.709 22.586 28.078 30.838 36.331 39.989 45.481 50.974 54.028 59.52 64.398" y="0">Policy provider</tspan><tspan id="tspan130" x="20.34 25.832 31.323 34.376 37.43 42.306" y="12.18">policy</tspan><tspan id="tspan132" x="15.72 21.195 26.116 30.976 34.013 38.269 41.306 46.78" y="24.3">decision</tspan><tspan id="tspan134" x="21.36 26.85 32.34 35.393 40.883 43.935" y="36.48">point</tspan><tspan id="tspan136" x="-122.94 -118.065 -112.575 -109.522 -104.032 -98.542 -94.886 -91.833 -86.958 -82.083 -79.031 -75.978 -70.488" y="-42.12">authorization</tspan><tspan id="tspan138" x="-106.44 -100.923 -95.462 -90.56 -86.876" y="-30.001">query</tspan><tspan id="tspan140" x="133.56 138.446 143.947 146.949 152.45 157.951 161.618 164.62 169.541 174.427 177.491 180.554 186.014" y="-42.12">authorization</tspan><tspan id="tspan142" x="150.36 154.021 158.9 163.176 168.67 171.727" y="-30.001">result</tspan></text><path id="path146" d="m 220.44,353.362 h 72.3 v -0.48 h -72.3 z" style="fill:#000;fill-opacity:1;fill-rule:nonzero;stroke:none"/><path id="path148" d="m 292.26,353.122 h 0.48 v -36.24 h -0.48 z" style="fill:#000;fill-opacity:1;fill-rule:nonzero;stroke:none"/><path id="path150" d="m 220.2,317.362 h 72.3 v -0.48 h -72.3 z" style="fill:#000;fill-opacity:1;fill-rule:nonzero;stroke:none"/><path id="path152" d="m 220.2,353.362 h 0.48 v -36.24 h -0.48 z" style="fill:#000;fill-opacity:1;fill-rule:nonzero;stroke:none"/><text id="text158" transform="matrix(1,0,0,-1,242.76,337.4617)" style="font-variant:normal;font-weight:400;font-size:10.98px;font-family:'Times New Roman';-inkscape-font-specification:TimesNewRoman;writing-mode:lr-tb;fill:#000;fill-opacity:1;fill-rule:nonzero;stroke:none"><tspan id="tspan154" x="0 5.491 10.982 14.036 17.089 21.965" y="0">policy</tspan><tspan id="tspan156" x="-9.48 -5.176 -2.174 2.734 5.819 10.681 19.203 24.111 29.571 32.657" y="12.12">statements</tspan></text><path id="path160" d="m 256.44,386.602 h -3.3 l 0.18,0.66 2.64,9.24 0.48,1.62 0.48,-1.62 2.7,-9.24 0.18,-0.66 h -0.66 l -0.48,0.36 -2.7,9.24 0.96,0.3 v -0.3 l -2.64,-9.24 -0.96,0.3 0.48,0.36 h 2.64" style="fill:#000;fill-opacity:1;fill-rule:nonzero;stroke:none"/><path id="path162" d="m 256.44,387.622 h 2.7 v -1.02 h -2.7 z" style="fill:#000;fill-opacity:1;fill-rule:nonzero;stroke:none"/><path id="path164" d="m 256.44,387.082 h -2.64 l 2.64,9.24 2.7,-9.24" style="fill:#000;fill-opacity:1;fill-rule:evenodd;stroke:none"/><path id="path166" d="m 256.2,362.122 h 0.48 v -0.24 h -0.48 z" style="fill:#000;fill-opacity:1;fill-rule:nonzero;stroke:none"/><path id="path168" d="m 256.2,386.842 h 0.48 v -24.72 h -0.48 z" style="fill:#000;fill-opacity:1;fill-rule:nonzero;stroke:none"/><path id="path170" d="m 102.9,365.542 -1.86,-0.06 -1.8,-0.3 -1.68,-0.42 -1.68,-0.6 -1.56,-0.78 -1.5,-0.9 -1.38,-1.02 -1.26,-1.14 -1.2,-1.32 -1.02,-1.38 -0.9,-1.5 -0.72,-1.56 -0.66,-1.62 -0.42,-1.74 -0.3,-1.8 -0.06,-1.86 v -27 l 0.06,-1.8 0.3,-1.8 0.42,-1.74 0.66,-1.62 0.72,-1.62 0.9,-1.44 1.02,-1.38 1.2,-1.32 1.26,-1.14 1.38,-1.02 1.5,-0.9 1.56,-0.78 1.68,-0.6 1.68,-0.42 1.8,-0.3 1.86,-0.12 h 49.5 l 1.86,0.12 1.74,0.3 1.74,0.42 1.68,0.6 1.56,0.78 1.5,0.9 1.38,1.02 1.26,1.14 1.14,1.32 1.08,1.38 0.9,1.44 0.72,1.62 0.66,1.62 0.42,1.74 0.24,1.8 0.12,1.8 v 27 l -0.12,1.86 -0.24,1.8 -0.42,1.74 -0.66,1.62 -0.72,1.56 -0.9,1.5 -1.08,1.38 -1.14,1.32 -1.26,1.14 -1.38,1.02 -1.5,0.9 -1.56,0.78 -1.68,0.6 -1.74,0.42 -1.74,0.3 -1.86,0.06 h -49.5" style="fill:#fff;fill-opacity:1;fill-rule:evenodd;stroke:none"/><path id="path172" d="m 102.9,365.302 -1.86,-0.06 h 0.06 l -1.8,-0.3 -1.68,-0.42 h 0.06 l -1.68,-0.6 -1.56,-0.78 -1.5,-0.9 0.06,0.06 -1.38,-1.02 -1.26,-1.14 -1.2,-1.32 -1.02,-1.38 0.06,0.06 -0.9,-1.5 -0.72,-1.56 -0.66,-1.62 v 0.06 l -0.42,-1.74 -0.3,-1.8 v 0.06 l -0.06,-1.86 v -27 l 0.06,-1.8 0.3,-1.8 v 0.06 l 0.42,-1.74 0.66,-1.62 0.72,-1.62 v 0.06 l 0.9,-1.44 h -0.06 l 1.02,-1.38 1.2,-1.32 v 0.06 l 1.26,-1.14 1.38,-1.02 h -0.06 l 1.5,-0.9 1.56,-0.78 v 0.06 l 1.68,-0.6 h -0.06 l 1.68,-0.42 1.8,-0.3 1.86,-0.12 h -0.06 49.5 l 1.86,0.12 1.74,0.3 h -0.06 l 1.74,0.42 1.68,0.6 -0.06,-0.06 1.56,0.78 0.24,-0.42 -1.56,-0.78 -1.68,-0.6 h -0.06 l -1.74,-0.42 -1.74,-0.3 -1.86,-0.12 H 102.9 l -1.86,0.12 -1.8,0.3 h -0.06 l -1.68,0.42 -1.68,0.6 h -0.06 l -1.56,0.78 -1.5,0.9 v 0.06 l -1.38,1.02 -1.26,1.14 H 90 l -1.2,1.32 -1.02,1.38 v 0.06 l -0.9,1.44 -0.72,1.62 -0.66,1.62 -0.06,0.06 -0.42,1.74 -0.3,1.8 v 0.06 l -0.06,1.8 v 27 l 0.06,1.86 0.3,1.8 v 0.06 l 0.42,1.74 h 0.06 l 0.66,1.62 0.72,1.56 v 0.06 l 0.9,1.5 1.02,1.38 1.2,1.32 0.06,0.06 1.26,1.14 1.38,1.02 1.5,0.9 1.56,0.78 0.06,0.06 1.68,0.6 1.68,0.42 h 0.06 l 1.8,0.3 1.86,0.06" style="fill:#000;fill-opacity:1;fill-rule:nonzero;stroke:none"/><path id="path174" d="m 160.86,304.942 1.5,0.9 1.38,1.02 1.26,1.14 -0.06,-0.06 1.14,1.32 1.08,1.38 0.9,1.44 v -0.06 l 0.72,1.62 0.66,1.62 h -0.06 l 0.42,1.74 v -0.06 l 0.24,1.8 0.12,1.8 v 27 -0.06 l -0.12,1.86 -0.24,1.8 -0.42,1.74 0.06,-0.06 -0.66,1.62 -0.72,1.56 -0.9,1.5 v -0.06 l -1.08,1.38 -1.14,1.32 H 165 l -1.26,1.14 -1.38,1.02 v -0.06 l -1.5,0.9 -1.56,0.78 h 0.06 l -1.68,0.6 -1.74,0.42 H 156 l -1.74,0.3 -1.86,0.06 h -49.5 v 0.48 h 49.5 l 1.86,-0.06 h 0.06 l 1.74,-0.3 1.74,-0.42 h 0.06 l 1.68,-0.6 v -0.06 l 1.56,-0.78 1.5,-0.9 h 0.06 l 1.38,-1.02 1.26,-1.14 v -0.06 l 1.14,-1.32 1.08,-1.38 h 0.06 l 0.9,-1.5 v -0.06 l 0.72,-1.56 0.66,-1.62 0.42,-1.74 v -0.06 l 0.24,-1.8 0.12,-1.86 v -27.06 l -0.12,-1.8 -0.24,-1.8 -0.42,-1.74 v -0.06 l -0.66,-1.62 -0.72,-1.62 -0.9,-1.44 -0.06,-0.06 -1.08,-1.38 -1.14,-1.32 -1.26,-1.14 -1.38,-1.02 -0.06,-0.06 -1.5,-0.9" style="fill:#000;fill-opacity:1;fill-rule:nonzero;stroke:none"/><text id="text182" transform="matrix(1,0,0,-1,107.22,343.0417)" style="font-variant:normal;font-weight:400;font-size:10.98px;font-family:'Times New Roman';-inkscape-font-specification:TimesNewRoman;writing-mode:lr-tb;fill:#000;fill-opacity:1;fill-rule:nonzero;stroke:none"><tspan id="tspan176" x="0 4.897 10.409 15.921 18.923 23.82 26.894 32.355 37.276" y="0">container</tspan><tspan id="tspan178" x="-5.52 -.055 4.795 10.315 13.377 18.842 24.361 32.879 37.8 43.264" y="12.12">deployment</tspan><tspan id="tspan180" x="9.721 12.779 18.274 23.77 26.827" y="24.3">tools</tspan></text><path id="path184" d="m 195.48,334.042 v 3.36 l 0.66,-0.18 9.18,-2.7 1.68,-0.48 -1.68,-0.48 -9.18,-2.64 -0.66,-0.18 v 0.66 l 0.36,0.48 9.18,2.64 0.3,-0.96 h -0.3 l -9.18,2.7 0.3,0.96 0.36,-0.48 v -2.7" style="fill:#000;fill-opacity:1;fill-rule:nonzero;stroke:none"/><path id="path186" d="m 195.48,334.042 h 1.02 v -2.64 h -1.02 z" style="fill:#000;fill-opacity:1;fill-rule:nonzero;stroke:none"/><path id="path188" d="m 195.96,334.042 v 2.7 l 9.18,-2.7 -9.18,-2.64" style="fill:#000;fill-opacity:1;fill-rule:evenodd;stroke:none"/><path id="path190" d="m 179.7,334.282 h 0.24 v -0.48 h -0.24 z" style="fill:#000;fill-opacity:1;fill-rule:nonzero;stroke:none"/><path id="path192" d="m 179.94,334.282 h 15.72 v -0.48 h -15.72 z" style="fill:#000;fill-opacity:1;fill-rule:nonzero;stroke:none"/><path id="path194" d="m 355.5,365.542 -1.86,-0.06 -1.8,-0.3 -1.74,-0.42 -1.62,-0.6 -1.56,-0.78 -1.5,-0.9 -1.38,-1.02 -1.32,-1.14 -1.14,-1.32 -1.02,-1.38 -0.9,-1.5 -0.78,-1.56 -0.6,-1.62 -0.42,-1.74 -0.3,-1.8 -0.06,-1.86 v -27 l 0.06,-1.8 0.3,-1.8 0.42,-1.74 0.6,-1.62 0.78,-1.62 0.9,-1.44 1.02,-1.38 1.14,-1.32 1.32,-1.14 1.38,-1.02 1.5,-0.9 1.56,-0.78 1.62,-0.6 1.74,-0.42 1.8,-0.3 1.86,-0.12 H 405 l 1.8,0.12 1.8,0.3 1.74,0.42 1.62,0.6 1.62,0.78 1.44,0.9 1.38,1.02 1.32,1.14 1.14,1.32 1.02,1.38 0.9,1.44 0.78,1.62 0.6,1.62 0.48,1.74 0.24,1.8 0.12,1.8 v 27 l -0.12,1.86 -0.24,1.8 -0.48,1.74 -0.6,1.62 -0.78,1.56 -0.9,1.5 -1.02,1.38 -1.14,1.32 -1.32,1.14 -1.38,1.02 -1.44,0.9 -1.62,0.78 -1.62,0.6 -1.74,0.42 -1.8,0.3 -1.8,0.06 h -49.5" style="fill:#fff;fill-opacity:1;fill-rule:evenodd;stroke:none"/><path id="path196" d="m 355.5,365.302 -1.86,-0.06 h 0.06 l -1.8,-0.3 -1.74,-0.42 h 0.06 l -1.62,-0.6 -1.56,-0.78 -1.5,-0.9 0.06,0.06 -1.38,-1.02 -1.32,-1.14 -1.14,-1.32 -1.02,-1.38 0.06,0.06 -0.9,-1.5 -0.78,-1.56 -0.6,-1.62 v 0.06 l -0.42,-1.74 -0.3,-1.8 v 0.06 l -0.06,-1.86 v -27 l 0.06,-1.8 0.3,-1.8 v 0.06 l 0.42,-1.74 0.6,-1.62 0.78,-1.62 v 0.06 l 0.9,-1.44 h -0.06 l 1.02,-1.38 1.14,-1.32 v 0.06 l 1.32,-1.14 1.38,-1.02 h -0.06 l 1.5,-0.9 1.56,-0.78 v 0.06 l 1.62,-0.6 h -0.06 l 1.74,-0.42 1.8,-0.3 1.86,-0.12 H 355.5 405 l 1.8,0.12 1.8,0.3 h -0.06 l 1.74,0.42 1.62,0.6 v -0.06 l 1.62,0.78 h -0.06 l 0.24,-0.42 -1.62,-0.78 -1.62,-0.6 h -0.06 l -1.74,-0.42 -1.8,-0.3 -1.8,-0.12 H 355.5 l -1.86,0.12 -1.8,0.3 h -0.06 l -1.74,0.42 -1.62,0.6 h -0.06 l -1.56,0.78 -1.5,0.9 v 0.06 l -1.38,1.02 -1.32,1.14 h -0.06 l -1.14,1.32 -1.02,1.38 v 0.06 l -0.9,1.44 -0.78,1.62 h -0.06 l -0.6,1.62 v 0.06 l -0.42,1.74 -0.3,1.8 v 0.06 l -0.06,1.8 v 27 l 0.06,1.86 0.3,1.8 v 0.06 l 0.42,1.74 0.6,1.62 0.06,0.06 0.78,1.56 0.9,1.5 1.02,1.38 1.14,1.32 0.06,0.06 1.32,1.14 1.38,1.02 1.5,0.9 1.56,0.78 0.06,0.06 1.62,0.6 1.74,0.42 h 0.06 l 1.8,0.3 1.86,0.06" style="fill:#000;fill-opacity:1;fill-rule:nonzero;stroke:none"/><path id="path198" d="m 413.46,304.942 1.44,0.9 1.38,1.02 1.32,1.14 -0.06,-0.06 1.14,1.32 1.02,1.38 0.9,1.44 v -0.06 l 0.78,1.62 h -0.06 l 0.6,1.62 0.48,1.74 v -0.06 l 0.24,1.8 0.12,1.8 v 27 -0.06 l -0.12,1.86 -0.24,1.8 -0.48,1.74 v -0.06 l -0.6,1.62 h 0.06 l -0.78,1.56 -0.9,1.5 v -0.06 l -1.02,1.38 -1.14,1.32 h 0.06 l -1.32,1.14 -1.38,1.02 v -0.06 l -1.44,0.9 h 0.06 l -1.62,0.78 -1.62,0.6 -1.74,0.42 h 0.06 l -1.8,0.3 -1.8,0.06 h -49.5 v 0.48 H 405 l 1.8,-0.06 h 0.06 l 1.8,-0.3 1.74,-0.42 h 0.06 l 1.62,-0.6 v -0.06 l 1.62,-0.78 1.44,-0.9 h 0.06 l 1.38,-1.02 1.32,-1.14 v -0.06 l 1.14,-1.32 1.02,-1.38 h 0.06 l 0.9,-1.5 0.78,-1.56 v -0.06 l 0.6,-1.62 0.48,-1.74 v -0.06 l 0.24,-1.8 0.12,-1.86 v -27.06 l -0.12,-1.8 -0.24,-1.8 -0.48,-1.74 v -0.06 l -0.6,-1.62 -0.78,-1.62 -0.9,-1.44 -0.06,-0.06 -1.02,-1.38 -1.14,-1.32 -1.32,-1.14 -1.38,-1.02 -0.06,-0.06 -1.44,-0.9" style="fill:#000;fill-opacity:1;fill-rule:nonzero;stroke:none"/><text id="text206" transform="matrix(1,0,0,-1,366.48,347.5417)" style="font-variant:normal;font-weight:400;font-size:10.98px;font-family:'Times New Roman';-inkscape-font-specification:TimesNewRoman;writing-mode:lr-tb;fill:#000;fill-opacity:1;fill-rule:nonzero;stroke:none"><tspan id="tspan200" x="0 5.465 10.984 14.012 17.039 21.96" y="0">policy</tspan><tspan id="tspan202" x="-18 -13.093 -7.632 .942 4.026 9.487 12.549 16.807 19.869 23.558 28.465 31.466 34.529 40.051" y="12.12">administration</tspan><tspan id="tspan204" x="3.06 6.118 11.614 17.109 20.167" y="24.3">tools</tspan></text><path id="path208" d="m 312.96,334.042 v -3.3 l -0.66,0.18 -9.18,2.64 -1.62,0.48 1.62,0.48 9.18,2.7 0.66,0.18 v -0.66 l -0.36,-0.48 -9.18,-2.7 -0.3,0.96 h 0.3 l 9.18,-2.64 -0.3,-0.96 -0.36,0.48 v 2.64" style="fill:#000;fill-opacity:1;fill-rule:nonzero;stroke:none"/><path id="path210" d="m 311.94,336.742 h 1.02 v -2.7 h -1.02 z" style="fill:#000;fill-opacity:1;fill-rule:nonzero;stroke:none"/><path id="path212" d="m 312.48,334.042 v -2.64 l -9.18,2.64 9.18,2.7" style="fill:#000;fill-opacity:1;fill-rule:evenodd;stroke:none"/><path id="path214" d="m 312.78,334.282 h 15.96 v -0.48 h -15.96 z" style="fill:#000;fill-opacity:1;fill-rule:nonzero;stroke:none"/><path id="path216" d="m 190.98,428.602 v 3.3 l 0.66,-0.18 9.18,-2.64 1.62,-0.48 -1.62,-0.48 -9.18,-2.7 -0.66,-0.18 v 0.66 l 0.36,0.48 9.18,2.7 0.3,-0.96 h -0.3 l -9.18,2.64 0.3,0.96 0.36,-0.48 v -2.64" style="fill:#000;fill-opacity:1;fill-rule:nonzero;stroke:none"/><path id="path218" d="M 190.98,428.602 H 192 v -2.7 h -1.02 z" style="fill:#000;fill-opacity:1;fill-rule:nonzero;stroke:none"/><path id="path220" d="m 191.46,428.602 v 2.64 l 9.18,-2.64 -9.18,-2.7" style="fill:#000;fill-opacity:1;fill-rule:evenodd;stroke:none"/><path id="path222" d="m 166.2,545.842 h 31.98 v -0.48 H 166.2 Z" style="fill:#000;fill-opacity:1;fill-rule:nonzero;stroke:none"/><path id="path224" d="m 166.2,545.602 h 0.48 v -117.24 h -0.48 z" style="fill:#000;fill-opacity:1;fill-rule:nonzero;stroke:none"/><path id="path226" d="m 166.44,428.842 h 24.72 v -0.48 h -24.72 z" style="fill:#000;fill-opacity:1;fill-rule:nonzero;stroke:none"/><path id="path228" d="m 321.96,545.602 v -3.3 l -0.66,0.18 -9.18,2.64 -1.68,0.48 1.68,0.48 9.18,2.64 0.66,0.18 v -0.66 l -0.36,-0.48 -9.18,-2.64 -0.3,0.96 h 0.3 l 9.18,-2.64 -0.3,-0.96 -0.36,0.48 v 2.64" style="fill:#000;fill-opacity:1;fill-rule:nonzero;stroke:none"/><path id="path230" d="m 320.94,548.242 h 1.02 v -2.64 h -1.02 z" style="fill:#000;fill-opacity:1;fill-rule:nonzero;stroke:none"/><path id="path232" d="m 321.48,545.602 v -2.64 l -9.18,2.64 9.18,2.64" style="fill:#000;fill-opacity:1;fill-rule:evenodd;stroke:none"/><path id="path234" d="m 314.76,428.842 h 31.98 v -0.48 h -31.98 z" style="fill:#000;fill-opacity:1;fill-rule:nonzero;stroke:none"/><path id="path236" d="m 346.26,545.842 h 0.48 v -117.24 h -0.48 z" style="fill:#000;fill-opacity:1;fill-rule:nonzero;stroke:none"/><path id="path238" d="m 321.78,545.842 h 24.72 v -0.48 h -24.72 z" style="fill:#000;fill-opacity:1;fill-rule:nonzero;stroke:none"/><text id="text248" transform="matrix(1,0,0,-1,216.36,492.6217)" style="font-variant:normal;font-weight:400;font-size:10.98px;font-family:'Times New Roman';-inkscape-font-specification:TimesNewRoman;writing-mode:lr-tb;fill:#000;fill-opacity:1;fill-rule:nonzero;stroke:none"><tspan id="tspan240" x="0 5.46 10.98 14.041 17.102 21.986 27.485 30.185 35.684 40.568 45.452 48.513 52.793 55.854 61.315 66.834 69.595 74.478 79.939" y="0">policy decision and</tspan><tspan id="tspan242" x="-11.46 -6.539 -1.078 2.584 8.079 11.741 16.622 21.502 30.05 34.931 40.426 43.484 46.184 50.503 55.963 61.458 66.339 71.834 77.33 80.388 84.05 88.93 93.852" y="12.18">enforcement subcontract</tspan><tspan id="tspan244" x="-67.319 -61.831 -56.342 -53.29 -50.239 -45.365 -39.876 -37.116 -32.242 -26.753 -21.264 -17.609 -14.557 -9.068 -3.579 .076 4.95 8.001 11.052 16.541" y="202.5">policy configuration</tspan><tspan id="tspan246" x="-47.94 -43.659 -38.198 -32.698 -27.813 -22.314 -16.853 -13.791 -10.125 -5.24 -.355" y="214.68">subcontract</tspan></text><path id="path250" d="m 199.92,532.102 v 3.3 l 0.66,-0.18 10.92,-3.12 -10.92,-3.12 -0.66,-0.18 v 0.66 l 0.36,0.48 9.24,2.64 0.3,-0.96 h -0.3 l -9.24,2.64 0.3,0.96 0.36,-0.48 v -2.64" style="fill:#000;fill-opacity:1;fill-rule:nonzero;stroke:none"/><path id="path252" d="m 199.92,532.102 h 1.02 v -2.64 h -1.02 z" style="fill:#000;fill-opacity:1;fill-rule:nonzero;stroke:none"/><path id="path254" d="m 200.4,532.102 v 2.64 l 9.24,-2.64 -9.24,-2.64" style="fill:#000;fill-opacity:1;fill-rule:evenodd;stroke:none"/><path id="path256" d="m 204.66,442.342 h 4.2 v -0.48 h -4.2 z" style="fill:#000;fill-opacity:1;fill-rule:nonzero;stroke:none"/><path id="path258" d="m 188.7,442.342 h 4.2 v -0.48 h -4.2 z" style="fill:#000;fill-opacity:1;fill-rule:nonzero;stroke:none"/><path id="path260" d="m 188.7,446.062 h 0.48 v -3.96 h -0.48 z" style="fill:#000;fill-opacity:1;fill-rule:nonzero;stroke:none"/><path id="path262" d="m 188.7,461.182 h 0.48 v -8.58 h -0.48 z" style="fill:#000;fill-opacity:1;fill-rule:nonzero;stroke:none"/><path id="path264" d="m 188.7,476.302 h 0.48 v -8.58 h -0.48 z" style="fill:#000;fill-opacity:1;fill-rule:nonzero;stroke:none"/><path id="path266" d="m 188.7,491.362 h 0.48 v -8.52 h -0.48 z" style="fill:#000;fill-opacity:1;fill-rule:nonzero;stroke:none"/><path id="path268" d="m 188.7,506.482 h 0.48 v -8.58 h -0.48 z" style="fill:#000;fill-opacity:1;fill-rule:nonzero;stroke:none"/><path id="path270" d="m 188.7,521.602 h 0.48 v -8.58 h -0.48 z" style="fill:#000;fill-opacity:1;fill-rule:nonzero;stroke:none"/><path id="path272" d="m 188.7,532.342 h 0.48 v -4.26 h -0.48 z" style="fill:#000;fill-opacity:1;fill-rule:nonzero;stroke:none"/><path id="path274" d="m 188.94,532.342 h 3.96 v -0.48 h -3.96 z" style="fill:#000;fill-opacity:1;fill-rule:nonzero;stroke:none"/><path id="path276" d="m 195.9,532.342 h 4.26 v -0.48 h -4.26 z" style="fill:#000;fill-opacity:1;fill-rule:nonzero;stroke:none"/><path id="path278" d="m 312.9,442.102 v -3.3 l -0.66,0.18 -9.18,2.64 -1.68,0.48 1.68,0.48 9.18,2.64 0.66,0.18 v -0.66 l -0.36,-0.48 -9.18,-2.64 -0.3,0.96 h 0.3 l 9.18,-2.64 -0.3,-0.96 -0.36,0.48 v 2.64" style="fill:#000;fill-opacity:1;fill-rule:nonzero;stroke:none"/><path id="path280" d="m 311.88,444.742 h 1.02 v -2.64 h -1.02 z" style="fill:#000;fill-opacity:1;fill-rule:nonzero;stroke:none"/><path id="path282" d="m 312.42,442.102 v -2.64 l -9.18,2.64 9.18,2.64" style="fill:#000;fill-opacity:1;fill-rule:evenodd;stroke:none"/><path id="path284" d="m 303.96,532.342 h 4.26 v -0.48 h -4.26 z" style="fill:#000;fill-opacity:1;fill-rule:nonzero;stroke:none"/><path id="path286" d="m 319.92,532.342 h 4.26 v -0.48 h -4.26 z" style="fill:#000;fill-opacity:1;fill-rule:nonzero;stroke:none"/><path id="path288" d="m 323.7,532.102 h 0.48 v -3.96 h -0.48 z" style="fill:#000;fill-opacity:1;fill-rule:nonzero;stroke:none"/><path id="path290" d="m 323.7,521.602 h 0.48 v -8.58 h -0.48 z" style="fill:#000;fill-opacity:1;fill-rule:nonzero;stroke:none"/><path id="path292" d="m 323.7,506.482 h 0.48 v -8.58 h -0.48 z" style="fill:#000;fill-opacity:1;fill-rule:nonzero;stroke:none"/><path id="path294" d="m 323.7,491.362 h 0.48 v -8.52 h -0.48 z" style="fill:#000;fill-opacity:1;fill-rule:nonzero;stroke:none"/><path id="path296" d="m 323.7,476.302 h 0.48 v -0.24 h -0.48 z" style="fill:#000;fill-opacity:1;fill-rule:nonzero;stroke:none"/><path id="path298" d="m 323.7,476.062 h 0.48 v -8.34 h -0.48 z" style="fill:#000;fill-opacity:1;fill-rule:nonzero;stroke:none"/><path id="path300" d="m 323.7,461.182 h 0.48 v -0.24 h -0.48 z" style="fill:#000;fill-opacity:1;fill-rule:nonzero;stroke:none"/><path id="path302" d="m 323.7,460.942 h 0.48 v -8.34 h -0.48 z" style="fill:#000;fill-opacity:1;fill-rule:nonzero;stroke:none"/><path id="path304" d="m 323.7,446.062 h 0.48 v -4.2 h -0.48 z" style="fill:#000;fill-opacity:1;fill-rule:nonzero;stroke:none"/><path id="path306" d="m 319.92,442.342 h 4.02 v -0.48 h -4.02 z" style="fill:#000;fill-opacity:1;fill-rule:nonzero;stroke:none"/><path id="path308" d="m 316.68,442.342 h 0.24 v -0.48 h -0.24 z" style="fill:#000;fill-opacity:1;fill-rule:nonzero;stroke:none"/><path id="path310" d="m 312.72,442.342 h 3.96 v -0.48 h -3.96 z" style="fill:#000;fill-opacity:1;fill-rule:nonzero;stroke:none"/></g></svg>